<svg version="1.1" id="svg2" xml:space="preserve" viewBox="34.97167969534884 80.08010742600001 97.14355470930234 82.50677734800001" xmlns:xlink="http://www.w3.org/1999/xlink" xmlns="http://www.w3.org/2000/svg" style="max-height: 500px" width="97.14355470930234" height="82.50677734800001"><metadata id="metadata43">image/svg+xml</metadata><defs id="defs41"><radialGradient gradientTransform="matrix(-1.5605256,0.01828294,-0.02684055,-2.2909528,123.98377,58.809108)" gradientUnits="userSpaceOnUse" r="9.5" fy="18.137882" fx="48.231091" cy="18.137882" cx="48.231091" id="radialGradient3760" xlink:href="#linearGradient2984"/><linearGradient id="linearGradient2984"><stop id="stop2986" offset="0" style="stop-color:#000000;stop-opacity:1;"/><stop id="stop2988" offset="1" style="stop-color:#000000;stop-opacity:0.65648854;"/></linearGradient><radialGradient gradientUnits="userSpaceOnUse" gradientTransform="matrix(1.1529891,-0.67391547,0.39482025,0.67549043,-233.63262,270.40076)" r="81.902771" fy="511.22299" fx="171.48665" cy="511.22299" cx="171.48665" id="radialGradient3792" xlink:href="#linearGradient3784"/><linearGradient id="linearGradient3784"><stop id="stop3786" offset="0" style="stop-color:#ffffff;stop-opacity:0.53435117;"/><stop id="stop3788" offset="1" style="stop-color:#000000;stop-opacity:0;"/></linearGradient><radialGradient xlink:href="#linearGradient3784-4" id="radialGradient3855" gradientUnits="userSpaceOnUse" gradientTransform="matrix(1.1529891,-0.67391547,0.39482025,0.67549043,-233.63262,270.40076)" cx="171.48665" cy="511.22299" fx="171.48665" fy="511.22299" r="81.902771"/><linearGradient id="linearGradient3784-4"><stop id="stop3786-8" offset="0" style="stop-color:#ffffff;stop-opacity:0.51908398;"/><stop id="stop3788-6" offset="1" style="stop-color:#000000;stop-opacity:0;"/></linearGradient><radialGradient xlink:href="#linearGradient3784-3" id="radialGradient3916" gradientUnits="userSpaceOnUse" gradientTransform="matrix(1.1529891,-0.67391547,0.39482025,0.67549043,-233.63262,270.40076)" cx="181.69392" cy="461.84113" fx="181.69392" fy="461.84113" r="81.902771"/><linearGradient id="linearGradient3784-3"><stop id="stop3786-86" offset="0" style="stop-color:#ffffff;stop-opacity:0.70229006;"/><stop id="stop3788-2" offset="1" style="stop-color:#000000;stop-opacity:0;"/></linearGradient></defs>
	<g style="fill-rule:nonzero;clip-rule:nonzero;stroke:#000000;stroke-miterlimit:4;" id="Layer_x0020_1">
		<path id="path5" d="M166.8369141,235.5478516c0,3.7773438-3.0869141,6.8691406-6.8710938,6.8691406H7.1108398c-3.7749023,0-6.8608398-3.0917969-6.8608398-6.8691406V7.1201172C0.25,3.3427734,3.3359375,0.25,7.1108398,0.25h152.8549805    c3.7841797,0,6.8710938,3.0927734,6.8710938,6.8701172v228.4277344z" style="fill:#FFFFFF;stroke-width:0.5;"/>
		<g id="g7" style="stroke:none;">
			<g id="g9">
				
			</g>
			
		</g>
		<g id="g15">
			
		</g>
		<g id="g19">
			
		</g>
		<g id="g23" style="stroke:none;">
			<g id="g25">
				
			</g>
			
		</g>
		<g id="g31" style="stroke:none;">
			<g id="g33">
				
			</g>
			
		</g>
	</g>
<text id="text3788" y="27.548409" x="8.3105459" style="font-size:32px;font-style:normal;font-weight:normal;line-height:125%;letter-spacing:0px;word-spacing:0px;fill:#000000;fill-opacity:1;stroke:none;font-family:Bitstream Vera Sans" xml:space="preserve"><tspan style="font-style:normal;font-variant:normal;font-weight:normal;font-stretch:normal;font-family:Arial;-inkscape-font-specification:Arial" y="27.548409" x="8.3105459" id="tspan3790">3</tspan></text>






<g id="layer1-1-4" transform="matrix(1.4856506,0,0,1.4856506,-54.024661,10.018072)"><path style="fill:#000000" d="m 50.291466,22.698228 c 0,0 2.375,-1.9 2.375,-4.534 0,-1.542 -1.369,-4.102 -4.534,-4.102 -3.165,0 -4.534,2.561 -4.534,4.102 0,2.634 2.375,4.534 2.375,4.534 -2.638,-2.055 -7.341,-0.652 -7.341,3.455 0,2.056 1.68,4.318 4.318,4.318 3.165,0 4.534,-3.455 4.534,-3.455 0,0 0.402,3.938 -1.943,6.046 h 5.182 c -2.345,-2.107 -1.943,-6.046 -1.943,-6.046 0,0 1.369,3.455 4.534,3.455 2.639,0 4.318,-2.263 4.318,-4.318 0,-4.107 -4.703,-5.51 -7.341,-3.455 z" id="cl-9"/></g><text transform="scale(-1,-1)" id="text3788-8" y="-214.4666" x="-158.86395" style="font-size:32px;font-style:normal;font-weight:normal;line-height:125%;letter-spacing:0px;word-spacing:0px;fill:#000000;fill-opacity:1;stroke:none;font-family:Bitstream Vera Sans" xml:space="preserve"><tspan style="font-style:normal;font-variant:normal;font-weight:normal;font-stretch:normal;font-family:Arial;-inkscape-font-specification:Arial" y="-214.4666" x="-158.86395" id="tspan3790-7">3</tspan></text>




<g id="layer1-1-4-1" transform="matrix(-1.4856506,0,0,-1.4856506,221.19916,232.46182)"><path style="fill:#000000" d="m 50.291466,22.698228 c 0,0 2.375,-1.9 2.375,-4.534 0,-1.542 -1.369,-4.102 -4.534,-4.102 -3.165,0 -4.534,2.561 -4.534,4.102 0,2.634 2.375,4.534 2.375,4.534 -2.638,-2.055 -7.341,-0.652 -7.341,3.455 0,2.056 1.68,4.318 4.318,4.318 3.165,0 4.534,-3.455 4.534,-3.455 0,0 0.402,3.938 -1.943,6.046 h 5.182 c -2.345,-2.107 -1.943,-6.046 -1.943,-6.046 0,0 1.369,3.455 4.534,3.455 2.639,0 4.318,-2.263 4.318,-4.318 0,-4.107 -4.703,-5.51 -7.341,-3.455 z" id="cl-9-7"/></g><g id="layer1-1-4-8" transform="matrix(2.5125778,0,0,2.5125778,-36.788386,-9.5311159)"><path style="fill:#000000" d="m 50.291466,22.698228 c 0,0 2.375,-1.9 2.375,-4.534 0,-1.542 -1.369,-4.102 -4.534,-4.102 -3.165,0 -4.534,2.561 -4.534,4.102 0,2.634 2.375,4.534 2.375,4.534 -2.638,-2.055 -7.341,-0.652 -7.341,3.455 0,2.056 1.68,4.318 4.318,4.318 3.165,0 4.534,-3.455 4.534,-3.455 0,0 0.402,3.938 -1.943,6.046 h 5.182 c -2.345,-2.107 -1.943,-6.046 -1.943,-6.046 0,0 1.369,3.455 4.534,3.455 2.639,0 4.318,-2.263 4.318,-4.318 0,-4.107 -4.703,-5.51 -7.341,-3.455 z" id="cl-9-8"/></g><g id="layer1-1-4-8-0" transform="matrix(-2.5125778,0,0,-2.5125778,205.12954,253.27515)"><path style="fill:#000000" d="m 50.291466,22.698228 c 0,0 2.375,-1.9 2.375,-4.534 0,-1.542 -1.369,-4.102 -4.534,-4.102 -3.165,0 -4.534,2.561 -4.534,4.102 0,2.634 2.375,4.534 2.375,4.534 -2.638,-2.055 -7.341,-0.652 -7.341,3.455 0,2.056 1.68,4.318 4.318,4.318 3.165,0 4.534,-3.455 4.534,-3.455 0,0 0.402,3.938 -1.943,6.046 h 5.182 c -2.345,-2.107 -1.943,-6.046 -1.943,-6.046 0,0 1.369,3.455 4.534,3.455 2.639,0 4.318,-2.263 4.318,-4.318 0,-4.107 -4.703,-5.51 -7.341,-3.455 z" id="cl-9-8-6"/></g><g id="layer1-1-4-8-2" transform="matrix(2.5125778,0,0,2.5125778,-36.788386,60.169684)"><path style="fill:#000000" d="m 50.291466,22.698228 c 0,0 2.375,-1.9 2.375,-4.534 0,-1.542 -1.369,-4.102 -4.534,-4.102 -3.165,0 -4.534,2.561 -4.534,4.102 0,2.634 2.375,4.534 2.375,4.534 -2.638,-2.055 -7.341,-0.652 -7.341,3.455 0,2.056 1.68,4.318 4.318,4.318 3.165,0 4.534,-3.455 4.534,-3.455 0,0 0.402,3.938 -1.943,6.046 h 5.182 c -2.345,-2.107 -1.943,-6.046 -1.943,-6.046 0,0 1.369,3.455 4.534,3.455 2.639,0 4.318,-2.263 4.318,-4.318 0,-4.107 -4.703,-5.51 -7.341,-3.455 z" id="cl-9-8-0"/></g></svg>