<svg version="1.1" id="svg2" xml:space="preserve" viewBox="34.97167969534884 80.08010742600001 97.14355470930234 82.50677734800001" xmlns:xlink="http://www.w3.org/1999/xlink" xmlns="http://www.w3.org/2000/svg" style="max-height: 500px" width="97.14355470930234" height="82.50677734800001"><metadata id="metadata43">image/svg+xml</metadata><defs id="defs41"><radialGradient gradientUnits="userSpaceOnUse" gradientTransform="matrix(-1.5842693,-0.02349808,0.03071979,-2.4775745,-0.24856378,-26.713507)" r="7.9997029" fy="-8.8345356" fx="-0.15782039" cy="-8.8345356" cx="-0.15782039" id="radialGradient3781" xlink:href="#linearGradient3773"/><linearGradient id="linearGradient3773"><stop id="stop3775" offset="0" style="stop-color:#000000;stop-opacity:1;"/><stop id="stop3777" offset="1" style="stop-color:#000000;stop-opacity:0.64885497;"/></linearGradient><radialGradient gradientUnits="userSpaceOnUse" gradientTransform="matrix(-1.5842693,-0.02349808,0.03071979,-2.4775745,-0.24856378,-26.713507)" r="7.9997029" fy="-8.8345356" fx="-0.15782039" cy="-8.8345356" cx="-0.15782039" id="radialGradient3957" xlink:href="#linearGradient3773"/><linearGradient id="linearGradient3959"><stop id="stop3961" offset="0" style="stop-color:#000000;stop-opacity:1;"/><stop id="stop3963" offset="1" style="stop-color:#000000;stop-opacity:0.64885497;"/></linearGradient><radialGradient xlink:href="#linearGradient3784-4" id="radialGradient3975" gradientUnits="userSpaceOnUse" gradientTransform="matrix(1.2565605,-0.77740644,0.33663816,0.5361257,-221.20213,359.24256)" cx="168.02475" cy="509.47577" fx="168.02475" fy="509.47577" r="81.902771"/><linearGradient id="linearGradient3784-4"><stop id="stop3786-8" offset="0" style="stop-color:#ffffff;stop-opacity:0.4351145;"/><stop id="stop3788-6" offset="1" style="stop-color:#000000;stop-opacity:0;"/></linearGradient><radialGradient r="81.902771" fy="509.47577" fx="168.02475" cy="509.47577" cx="168.02475" gradientTransform="matrix(1.2565605,-0.77740644,0.33663816,0.5361257,-221.20213,359.24256)" gradientUnits="userSpaceOnUse" id="radialGradient3929" xlink:href="#linearGradient3784-4-5"/><linearGradient id="linearGradient3784-4-5"><stop id="stop3786-8-0" offset="0" style="stop-color:#ffffff;stop-opacity:0.48854962;"/><stop id="stop3788-6-3" offset="1" style="stop-color:#000000;stop-opacity:0;"/></linearGradient><radialGradient r="81.902771" fy="509.47577" fx="168.02475" cy="509.47577" cx="168.02475" gradientTransform="matrix(1.2565605,-0.77740644,0.33663816,0.5361257,-221.20213,359.24256)" gradientUnits="userSpaceOnUse" id="radialGradient3927" xlink:href="#linearGradient3784-4-1"/><linearGradient id="linearGradient3784-4-1"><stop id="stop3786-8-03" offset="0" style="stop-color:#ffffff;stop-opacity:0.23664123;"/><stop id="stop3788-6-6" offset="1" style="stop-color:#000000;stop-opacity:0;"/></linearGradient><linearGradient id="linearGradient3768"><stop id="stop3770" offset="0" style="stop-color:#df0000;stop-opacity:1;"/><stop id="stop3772" offset="1" style="stop-color:#df0000;stop-opacity:0.67175573;"/></linearGradient><linearGradient id="linearGradient3784-4-6"><stop id="stop3786-8-8" offset="0" style="stop-color:#ffffff;stop-opacity:0.31297711;"/><stop id="stop3788-6-8" offset="1" style="stop-color:#000000;stop-opacity:0;"/></linearGradient><radialGradient xlink:href="#linearGradient3784-4-2" id="radialGradient4013-8" gradientUnits="userSpaceOnUse" gradientTransform="matrix(1.0894779,-0.71513803,0.44645273,0.65626582,-244.93331,290.9185)" cx="159.35434" cy="492.63205" fx="159.35434" fy="492.63205" r="81.902771"/><linearGradient id="linearGradient3784-4-2"><stop id="stop3786-8-1" offset="0" style="stop-color:#ffffff;stop-opacity:0.29007635;"/><stop id="stop3788-6-5" offset="1" style="stop-color:#000000;stop-opacity:0;"/></linearGradient><linearGradient id="linearGradient2984"><stop id="stop2986" offset="0" style="stop-color:#df0000;stop-opacity:1;"/><stop id="stop2988" offset="1" style="stop-color:#df0000;stop-opacity:0.64122134;"/></linearGradient><linearGradient id="linearGradient3784-4-4"><stop id="stop3786-8-8-2" offset="0" style="stop-color:#ffffff;stop-opacity:0.4351145;"/><stop id="stop3788-6-1" offset="1" style="stop-color:#000000;stop-opacity:0;"/></linearGradient><radialGradient xlink:href="#linearGradient3784-4-4" id="radialGradient3100" gradientUnits="userSpaceOnUse" gradientTransform="matrix(1.1529891,-0.67391547,0.39482025,0.67549043,-233.63262,270.40076)" cx="171.48665" cy="511.22299" fx="171.48665" fy="511.22299" r="81.902771"/><radialGradient r="8" fy="-3.2337365" fx="1.6632675e-13" cy="-3.2337365" cx="1.6632675e-13" gradientTransform="matrix(-1.1224159,0.00551393,-0.00908973,-1.8503101,-0.0293938,-10.227695)" gradientUnits="userSpaceOnUse" id="radialGradient3137" xlink:href="#linearGradient2984"/></defs>
	<g style="fill-rule:nonzero;clip-rule:nonzero;stroke:#000000;stroke-miterlimit:4;" id="Layer_x0020_1">
		<path id="path5" d="M166.8369141,235.5478516c0,3.7773438-3.0869141,6.8691406-6.8710938,6.8691406H7.1108398c-3.7749023,0-6.8608398-3.0917969-6.8608398-6.8691406V7.1201172C0.25,3.3427734,3.3359375,0.25,7.1108398,0.25h152.8549805    c3.7841797,0,6.8710938,3.0927734,6.8710938,6.8701172v228.4277344z" style="fill:#FFFFFF;stroke-width:0.5;"/>
		<g id="g7" style="stroke:none;">
			<g id="g9">
				
			</g>
			
		</g>
		<g id="g15">
			
		</g>
		<g id="g19">
			
		</g>
		<g id="g23" style="stroke:none;">
			<g id="g25">
				
			</g>
			
		</g>
		<g id="g31" style="stroke:none;">
			<g id="g33">
				
			</g>
			
		</g>
	</g>



<text id="text3788" y="26.413288" x="7.8456664" style="font-size:32px;font-style:normal;font-weight:normal;line-height:125%;letter-spacing:0px;word-spacing:0px;fill:#df0000;fill-opacity:1;stroke:none;font-family:Bitstream Vera Sans" xml:space="preserve"><tspan style="font-style:normal;font-variant:normal;font-weight:normal;font-stretch:normal;fill:#df0000;fill-opacity:1;font-family:Arial;-inkscape-font-specification:Arial" y="26.413288" x="7.8456664" id="tspan3790">3</tspan></text>








<text transform="scale(-1,-1)" id="text3788-4" y="-216.71518" x="-159.48785" style="font-size:32px;font-style:normal;font-weight:normal;line-height:125%;letter-spacing:0px;word-spacing:0px;fill:#df0000;fill-opacity:1;stroke:none;font-family:Bitstream Vera Sans" xml:space="preserve"><tspan style="font-style:normal;font-variant:normal;font-weight:normal;font-stretch:normal;fill:#df0000;fill-opacity:1;font-family:Arial;-inkscape-font-specification:Arial" y="-216.71518" x="-159.48785" id="tspan3790-3">3</tspan></text>







<g id="layer1-2-6" transform="matrix(1.4769065,0,0,1.4769065,16.968095,44.236162)"><path d="M 3.2433274,-4.7253274 C 1.1263274,-7.5893274 0,-10.5 0,-10.5 c 0,0 -1.1263274,2.9106726 -3.2433274,5.7746726 C -5.3613274,-1.8623274 -8,0 -8,0 -8,0 -5.3613274,1.8613274 -3.2433274,4.7263274 -1.1263274,7.5893274 0,10.5 0,10.5 0,10.5 1.1263274,7.5893274 3.2433274,4.7263274 5.3613274,1.8613274 8,0 8,0 8,0 5.3613274,-1.8623274 3.2433274,-4.7253274 z" id="dl-6" style="fill:#df0000"/></g><g id="layer1-2-6-4" transform="matrix(1.4769065,0,0,1.4769065,150.62089,198.50346)"><path d="M 3.2433274,-4.7253274 C 1.1263274,-7.5893274 0,-10.5 0,-10.5 c 0,0 -1.1263274,2.9106726 -3.2433274,5.7746726 C -5.3613274,-1.8623274 -8,0 -8,0 -8,0 -5.3613274,1.8613274 -3.2433274,4.7263274 -1.1263274,7.5893274 0,10.5 0,10.5 0,10.5 1.1263274,7.5893274 3.2433274,4.7263274 5.3613274,1.8613274 8,0 8,0 8,0 5.3613274,-1.8623274 3.2433274,-4.7253274 z" id="dl-6-9" style="fill:#df0000"/></g><g id="layer1-2-6-8" transform="matrix(2.5882908,0,0,2.5882908,82.928726,192.02194)"><path d="M 3.2433274,-4.7253274 C 1.1263274,-7.5893274 0,-10.5 0,-10.5 c 0,0 -1.1263274,2.9106726 -3.2433274,5.7746726 C -5.3613274,-1.8623274 -8,0 -8,0 -8,0 -5.3613274,1.8613274 -3.2433274,4.7263274 -1.1263274,7.5893274 0,10.5 0,10.5 0,10.5 1.1263274,7.5893274 3.2433274,4.7263274 5.3613274,1.8613274 8,0 8,0 8,0 5.3613274,-1.8623274 3.2433274,-4.7253274 z" id="dl-6-8" style="fill:#df0000"/></g><g id="layer1-2-6-8-2" transform="matrix(2.5882908,0,0,2.5882908,82.928726,50.819539)"><path d="M 3.2433274,-4.7253274 C 1.1263274,-7.5893274 0,-10.5 0,-10.5 c 0,0 -1.1263274,2.9106726 -3.2433274,5.7746726 C -5.3613274,-1.8623274 -8,0 -8,0 -8,0 -5.3613274,1.8613274 -3.2433274,4.7263274 -1.1263274,7.5893274 0,10.5 0,10.5 0,10.5 1.1263274,7.5893274 3.2433274,4.7263274 5.3613274,1.8613274 8,0 8,0 8,0 5.3613274,-1.8623274 3.2433274,-4.7253274 z" id="dl-6-8-6" style="fill:#df0000"/></g><g id="layer1-2-6-8-2-8" transform="matrix(2.5882908,0,0,2.5882908,82.928726,120.52034)"><path d="M 3.2433274,-4.7253274 C 1.1263274,-7.5893274 0,-10.5 0,-10.5 c 0,0 -1.1263274,2.9106726 -3.2433274,5.7746726 C -5.3613274,-1.8623274 -8,0 -8,0 -8,0 -5.3613274,1.8613274 -3.2433274,4.7263274 -1.1263274,7.5893274 0,10.5 0,10.5 0,10.5 1.1263274,7.5893274 3.2433274,4.7263274 5.3613274,1.8613274 8,0 8,0 8,0 5.3613274,-1.8623274 3.2433274,-4.7253274 z" id="dl-6-8-6-8" style="fill:#df0000"/></g></svg>